<!--?xml version="1.0" standalone="no"?-->
              <svg id="sw-js-blob-svg" viewBox="0 0 100 100" xmlns="http://www.w3.org/2000/svg" version="1.1">
                    <defs> 
                        <linearGradient id="sw-gradient" x1="0" x2="1" y1="1" y2="0">
                            <stop id="stop1" stop-color="rgba(101.851, 194.025, 136.515, 1)" offset="0%"></stop>
                            <stop id="stop2" stop-color="rgba(155.05, 212.239, 133.183, 0.87)" offset="100%"></stop>
                        </linearGradient>
                    </defs>
                <path fill="url(#sw-gradient)" d="M16.3,-26.9C20.6,-22.5,23.3,-17.2,28.4,-11.4C33.5,-5.6,41,0.7,40.8,6.3C40.7,11.9,32.9,16.9,27,23C21.1,29.2,17,36.6,11.5,37.5C5.9,38.5,-1.1,33,-9.4,31C-17.6,29,-27.2,30.4,-32.3,26.7C-37.3,23.1,-38,14.3,-38.1,6.2C-38.2,-2,-37.8,-9.5,-33.8,-14.2C-29.8,-19,-22.2,-20.8,-16,-24.3C-9.7,-27.9,-4.9,-33,0.6,-33.9C6,-34.7,11.9,-31.3,16.3,-26.9Z" width="100%" height="100%" transform="translate(50 50)" stroke-width="0" style="transition: all 0.3s ease 0s;"></path>
              </svg>