<!--?xml version="1.0" standalone="no"?-->
              <svg id="sw-js-blob-svg" viewBox="0 0 100 100" xmlns="http://www.w3.org/2000/svg" version="1.1">
                    <defs> 
                        <linearGradient id="sw-gradient" x1="0" x2="1" y1="1" y2="0">
                            <stop id="stop1" stop-color="rgba(65.97, 145.453, 50.073, 1)" offset="0%"></stop>
                            <stop id="stop2" stop-color="rgba(157.702, 218.311, 134.528, 0.5)" offset="100%"></stop>
                        </linearGradient>
                    </defs>
                <path fill="url(#sw-gradient)" d="M16.4,-27.7C18,-21.5,13.7,-12.3,16.8,-4.9C20,2.5,30.8,8,30.8,10.7C30.8,13.3,20.1,13.2,13.2,19C6.3,24.9,3.1,36.7,-1.8,39.1C-6.7,41.5,-13.3,34.5,-16.3,27.4C-19.2,20.3,-18.5,13,-20.2,6.8C-21.9,0.6,-26.1,-4.6,-27.1,-11.1C-28.2,-17.6,-26.1,-25.3,-21.1,-30.4C-16,-35.5,-8,-37.9,-0.3,-37.5C7.4,-37.1,14.9,-33.9,16.4,-27.7Z" width="100%" height="100%" transform="translate(50 50)" stroke-width="0" style="transition: all 0.3s ease 0s;"></path>
              </svg>