<svg xmlns="http://www.w3.org/2000/svg" viewBox="0 0 1440 320"><path fill="#437033" fill-opacity="1" d="M0,64L24,74.7C48,85,96,107,144,101.3C192,96,240,64,288,85.3C336,107,384,181,432,224C480,267,528,277,576,288C624,299,672,309,720,293.3C768,277,816,235,864,192C912,149,960,107,1008,90.7C1056,75,1104,85,1152,106.7C1200,128,1248,160,1296,186.7C1344,213,1392,235,1416,245.3L1440,256L1440,320L1416,320C1392,320,1344,320,1296,320C1248,320,1200,320,1152,320C1104,320,1056,320,1008,320C960,320,912,320,864,320C816,320,768,320,720,320C672,320,624,320,576,320C528,320,480,320,432,320C384,320,336,320,288,320C240,320,192,320,144,320C96,320,48,320,24,320L0,320Z"></path></svg>