<svg xmlns="http://www.w3.org/2000/svg" viewBox="0 0 1440 320"><path fill="#a2c495" fill-opacity="1" d="M0,96L20,85.3C40,75,80,53,120,74.7C160,96,200,160,240,160C280,160,320,96,360,96C400,96,440,160,480,170.7C520,181,560,139,600,133.3C640,128,680,160,720,197.3C760,235,800,277,840,250.7C880,224,920,128,960,106.7C1000,85,1040,139,1080,186.7C1120,235,1160,277,1200,272C1240,267,1280,213,1320,197.3C1360,181,1400,203,1420,213.3L1440,224L1440,320L1420,320C1400,320,1360,320,1320,320C1280,320,1240,320,1200,320C1160,320,1120,320,1080,320C1040,320,1000,320,960,320C920,320,880,320,840,320C800,320,760,320,720,320C680,320,640,320,600,320C560,320,520,320,480,320C440,320,400,320,360,320C320,320,280,320,240,320C200,320,160,320,120,320C80,320,40,320,20,320L0,320Z"></path></svg>