<svg id="visual" viewBox="0 0 3840 2160" width="3840" height="2160" xmlns="http://www.w3.org/2000/svg" xmlns:xlink="http://www.w3.org/1999/xlink" version="1.1"><rect x="0" y="0" width="3840" height="2160" fill="#bcbcbc"></rect><path d="M0 1471L80 1463.7C160 1456.3 320 1441.7 480 1414C640 1386.3 800 1345.7 960 1337.2C1120 1328.7 1280 1352.3 1440 1362.5C1600 1372.7 1760 1369.3 1920 1373.8C2080 1378.3 2240 1390.7 2400 1404.8C2560 1419 2720 1435 2880 1404.5C3040 1374 3200 1297 3360 1268.8C3520 1240.7 3680 1261.3 3760 1271.7L3840 1282L3840 2161L3760 2161C3680 2161 3520 2161 3360 2161C3200 2161 3040 2161 2880 2161C2720 2161 2560 2161 2400 2161C2240 2161 2080 2161 1920 2161C1760 2161 1600 2161 1440 2161C1280 2161 1120 2161 960 2161C800 2161 640 2161 480 2161C320 2161 160 2161 80 2161L0 2161Z" fill="#a2c495"></path><path d="M0 1439L80 1462.7C160 1486.3 320 1533.7 480 1546.5C640 1559.3 800 1537.7 960 1540.8C1120 1544 1280 1572 1440 1568.5C1600 1565 1760 1530 1920 1504C2080 1478 2240 1461 2400 1455.8C2560 1450.7 2720 1457.3 2880 1460.8C3040 1464.3 3200 1464.7 3360 1500.8C3520 1537 3680 1609 3760 1645L3840 1681L3840 2161L3760 2161C3680 2161 3520 2161 3360 2161C3200 2161 3040 2161 2880 2161C2720 2161 2560 2161 2400 2161C2240 2161 2080 2161 1920 2161C1760 2161 1600 2161 1440 2161C1280 2161 1120 2161 960 2161C800 2161 640 2161 480 2161C320 2161 160 2161 80 2161L0 2161Z" fill="#7b9972"></path><path d="M0 1592L80 1634C160 1676 320 1760 480 1822.2C640 1884.3 800 1924.7 960 1929C1120 1933.3 1280 1901.7 1440 1849.8C1600 1798 1760 1726 1920 1737.5C2080 1749 2240 1844 2400 1831.3C2560 1818.7 2720 1698.3 2880 1683.5C3040 1668.7 3200 1759.3 3360 1780.5C3520 1801.7 3680 1753.3 3760 1729.2L3840 1705L3840 2161L3760 2161C3680 2161 3520 2161 3360 2161C3200 2161 3040 2161 2880 2161C2720 2161 2560 2161 2400 2161C2240 2161 2080 2161 1920 2161C1760 2161 1600 2161 1440 2161C1280 2161 1120 2161 960 2161C800 2161 640 2161 480 2161C320 2161 160 2161 80 2161L0 2161Z" fill="#577050"></path><path d="M0 1939L80 1915.3C160 1891.7 320 1844.3 480 1863.7C640 1883 800 1969 960 1995.2C1120 2021.3 1280 1987.7 1440 1988C1600 1988.3 1760 2022.7 1920 2030.8C2080 2039 2240 2021 2400 1984.5C2560 1948 2720 1893 2880 1892.5C3040 1892 3200 1946 3360 1971.7C3520 1997.3 3680 1994.7 3760 1993.3L3840 1992L3840 2161L3760 2161C3680 2161 3520 2161 3360 2161C3200 2161 3040 2161 2880 2161C2720 2161 2560 2161 2400 2161C2240 2161 2080 2161 1920 2161C1760 2161 1600 2161 1440 2161C1280 2161 1120 2161 960 2161C800 2161 640 2161 480 2161C320 2161 160 2161 80 2161L0 2161Z" fill="#354931"></path></svg>